<?xml version="1.0" encoding="utf-8"?>
<!-- Generator: Adobe Illustrator 27.3.1, SVG Export Plug-In . SVG Version: 6.00 Build 0)  -->
<svg version="1.1" id="_x5F_0008_x5F_Lun_xA0_Image_00000143576477614274910400000000565700416709364670_"
	 xmlns="http://www.w3.org/2000/svg" xmlns:xlink="http://www.w3.org/1999/xlink" x="0px" y="0px" viewBox="0 0 491.52 491.52"
	 style="enable-background:new 0 0 491.52 491.52;" xml:space="preserve">
<path d="M206.85,272.1c3.22,0,6.25,0,9.28,0c32.43,0.03,64.87,0.04,97.3,0.1c5.44,0.01,10.88,0.18,16.26,1.1
	c2.57,0.44,5.09,1.07,7.4,2.35c4.57,2.54,5.74,6.77,3.07,11.26c-2.27,3.81-5.81,6.1-9.77,7.8c-5.82,2.51-12,3.32-18.25,3.69
	c-11.83,0.7-23.67,0.45-35.5,0.46c-38.19,0.03-76.39,0.01-114.58,0.01c-0.2,0-0.4,0.02-0.6,0.01c-0.27-0.01-0.6,0.19-0.79-0.08
	c-0.2-0.29,0.12-0.51,0.25-0.74c13.26-22.95,26.51-45.9,39.78-68.85c12.05-20.84,24.09-41.68,36.17-62.5
	c2.71-4.67,5.55-9.26,8.96-13.47c1.67-2.06,3.48-3.97,5.74-5.41c4.73-3,9.27-1.78,11.84,3.21c1.31,2.54,1.78,5.29,1.81,8.12
	c0.06,5.97-1.7,11.52-4.04,16.91c-3.35,7.72-7.63,14.96-11.82,22.24c-9.79,17.02-19.61,34.02-29.42,51.03
	c-4.24,7.34-8.48,14.68-12.71,22.02C207.13,271.54,207.05,271.72,206.85,272.1z"/>
</svg>
