<?xml version="1.0" encoding="utf-8"?>
<!-- Generator: Adobe Illustrator 27.3.1, SVG Export Plug-In . SVG Version: 6.00 Build 0)  -->
<svg version="1.1" id="_x5F_0007_x5F_Luna_xA0_Image_00000035522238095532301450000010449431791964440502_"
	 xmlns="http://www.w3.org/2000/svg" xmlns:xlink="http://www.w3.org/1999/xlink" x="0px" y="0px" viewBox="0 0 491.52 491.52"
	 style="enable-background:new 0 0 491.52 491.52;" xml:space="preserve">
<path d="M281.93,186.37c-0.01,4.72-1,9.29-2.16,13.83c-0.34,1.32-0.63,2.64-0.95,3.96c-1.3,5.37-0.58,10.46,1.97,15.35
	c3.43,6.56,7.27,12.89,10.94,19.31c10.5,18.36,21.28,36.56,31.59,55.03c2.34,4.19,4.56,8.45,6.16,12.99
	c0.79,2.23,1.39,4.51,1.45,6.9c0.12,5.38-3.1,8.58-8.48,8.4c-3.85-0.13-7.21-1.69-10.32-3.83c-4.72-3.24-8.35-7.54-11.61-12.18
	c-5.67-8.06-10.39-16.7-15.35-25.19c-8.71-14.92-17.14-30-26.04-44.8c-1.42-2.37-3.01-4.63-5.06-6.52
	c-4.87-4.49-11.6-4.51-16.49-0.04c-2.36,2.16-4.08,4.82-5.69,7.54c-8.51,14.29-16.67,28.78-25.05,43.15
	c-6.32,10.84-12.35,21.86-19.17,32.41c-1.98,3.06-4.13,5.99-6.75,8.55c-1.38,1.35-2.89,2.53-4.67,3.32
	c-3.34,1.47-6.51,0.74-8.84-2.07c-1.71-2.07-2.54-4.51-2.92-7.13c-0.75-5.12,0.2-10.04,1.81-14.86c2.35-7.02,5.88-13.48,9.54-19.87
	c10.74-18.73,21.54-37.43,32.3-56.15c0.94-1.63,1.79-3.31,2.68-4.96c2.67-4.94,3.25-10.12,1.96-15.58
	c-0.95-4.01-2.05-7.97-2.66-12.06c-2.99-20.09,10.12-38.19,30.08-41.51c19.74-3.29,38.77,10.81,41.36,30.63
	C281.78,182.78,281.91,184.57,281.93,186.37z"/>
</svg>
