<?xml version="1.0" encoding="utf-8"?>
<!-- Generator: Adobe Illustrator 27.3.1, SVG Export Plug-In . SVG Version: 6.00 Build 0)  -->
<svg version="1.1" id="_x5F_0006_x5F_Lunor_xA0_Image_00000078757184282292960410000002054477257887824008_"
	 xmlns="http://www.w3.org/2000/svg" xmlns:xlink="http://www.w3.org/1999/xlink" x="0px" y="0px" viewBox="0 0 491.52 491.52"
	 style="enable-background:new 0 0 491.52 491.52;" xml:space="preserve">
<path d="M202.96,262.37c10.99,0,21.99,0,32.98,0c1.12,0,2.24-0.08,3.36-0.09c9.1-0.12,14.78-5.01,18.13-13.07
	c2.03-4.89,1.86-9.75-0.49-14.51c-2.71-5.49-5.95-10.69-8.98-16c-9.84-17.22-19.97-34.27-29.6-51.61c-2.31-4.16-4.48-8.4-6-12.93
	c-0.75-2.25-1.29-4.54-1.23-6.93c0.12-4.6,2.88-7.47,7.48-7.69c3.88-0.19,7.29,1.22,10.49,3.25c5.03,3.18,8.82,7.6,12.23,12.38
	c5.37,7.54,9.84,15.63,14.47,23.62c7.67,13.21,15.39,26.39,22.93,39.67c3.57,6.29,8.76,10.06,15.71,11.75
	c5.54,1.35,11.11,2.61,16.41,4.79c13.83,5.67,23.19,15.45,27.14,30.01c6.43,23.69-9.38,48.69-33.47,53.02
	c-14.6,2.62-27.29-1.54-38.43-11.04c-3.96-3.38-7.41-7.28-11.09-10.94c-4.44-4.41-9.68-6.8-15.99-6.8c-8.71,0-17.43-0.07-26.14-0.08
	c-16.23-0.03-32.46,0.12-48.7-0.13c-4.56-0.07-9.11-0.27-13.62-1.01c-2.57-0.43-5.09-1.04-7.42-2.27
	c-4.93-2.62-6.11-7.21-3.03-11.89c1.76-2.67,4.21-4.57,6.99-6.08c3.66-1.99,7.61-3.13,11.68-3.84c7.12-1.25,14.32-1.38,21.52-1.43
	c7.56-0.05,15.11-0.01,22.67-0.01V262.37z M317.34,275.77c-0.04-0.88-0.02-1.76-0.15-2.63c-0.94-6.73-4.38-11.91-9.96-15.67
	c-5.67-3.82-12.06-5.9-18.72-7.19c-4.97-0.97-8.79,0.66-11.34,5.1c-2.74,4.78-5.5,9.54-8.2,14.34c-2.35,4.17-1.9,8.14,1.19,11.76
	c3.96,4.66,8.48,8.69,13.75,11.81c3.23,1.91,6.72,3.06,10.49,3.41C306.68,297.87,317.32,288.19,317.34,275.77z"/>
</svg>
