<?xml version="1.0" encoding="utf-8"?>
<!-- Generator: Adobe Illustrator 27.3.1, SVG Export Plug-In . SVG Version: 6.00 Build 0)  -->
<svg version="1.1" id="_x5F_0002_x5F_Stel_xA0_Image_00000043424450697600910480000000447353630479264439_"
	 xmlns="http://www.w3.org/2000/svg" xmlns:xlink="http://www.w3.org/1999/xlink" x="0px" y="0px" viewBox="0 0 491.52 491.52"
	 style="enable-background:new 0 0 491.52 491.52;" xml:space="preserve">
<path d="M329.51,336.11c-4.54-0.12-8.94-1.84-13.1-4.26c-5.88-3.43-10.92-7.94-15.78-12.64c-14.45-13.98-28.51-28.37-42.77-42.55
	c-3.74-3.72-7.48-7.44-11.17-11.22c-0.7-0.72-1.05-0.7-1.75,0.01c-19.19,19.21-38.4,38.41-57.63,57.58
	c-4.3,4.29-8.67,8.53-13.55,12.18c-2.28,1.71-4.67,3.23-7.41,4.11c-5.36,1.72-9.52-0.71-10.64-6.25c-0.84-4.12,0.02-8.03,1.52-11.85
	c1.82-4.63,4.62-8.67,7.73-12.5c3.83-4.73,8.07-9.09,12.36-13.4c16.15-16.2,32.32-32.38,48.51-48.54c0.83-0.83,0.99-1.24,0.05-2.17
	c-19.94-19.93-39.98-39.75-59.75-59.84c-4.01-4.08-7.94-8.23-11.15-13c-1.32-1.97-2.44-4.04-3.04-6.36c-1.16-4.5,0.76-8.05,5.19-9.5
	c3.19-1.05,6.4-0.8,9.59,0.02c5.78,1.47,10.68,4.62,15.28,8.28c6.99,5.56,13.21,11.97,19.52,18.26
	c14.47,14.42,28.91,28.87,43.34,43.34c0.74,0.74,1.11,0.85,1.91,0.04c19.64-19.66,39.31-39.3,59-58.92
	c4.17-4.15,8.42-8.21,13.25-11.61c2.1-1.48,4.31-2.76,6.82-3.45c4.76-1.31,8.45,0.7,9.85,5.45c1.07,3.63,0.57,7.22-0.54,10.74
	c-1.43,4.57-3.89,8.58-6.75,12.36c-4.6,6.08-9.95,11.48-15.31,16.86c-15.81,15.86-31.65,31.7-47.5,47.51
	c-0.73,0.73-0.66,1.07,0.02,1.76c20.05,20.09,40.25,40.04,60.15,60.28c3.98,4.05,7.88,8.18,11.03,12.94
	c1.28,1.94,2.37,3.99,2.93,6.27c1.1,4.5-0.91,8.05-5.33,9.43C332.9,335.95,331.39,336.12,329.51,336.11z"/>
</svg>
