<?xml version="1.0" encoding="utf-8"?>
<!-- Generator: Adobe Illustrator 27.3.1, SVG Export Plug-In . SVG Version: 6.00 Build 0)  -->
<svg version="1.1" id="_x5F_0000_x5F_Stelor_xA0_Image_00000000901848273438711370000001003062157918758813_"
	 xmlns="http://www.w3.org/2000/svg" xmlns:xlink="http://www.w3.org/1999/xlink" x="0px" y="0px" viewBox="0 0 491.52 491.52"
	 style="enable-background:new 0 0 491.52 491.52;" xml:space="preserve">
<path d="M248.96,372.97c-2.02-0.04-3.74-0.75-5.32-1.82c-2.36-1.61-4.12-3.77-5.54-6.22c-1.98-3.39-3.15-7.07-3.94-10.89
	c-1.06-5.11-1.45-10.3-1.55-15.5c-0.14-6.88-0.16-13.76-0.25-20.63c-0.03-1.88-0.13-3.76-0.23-5.63c-0.31-5.6-2.81-9.98-7.36-13.24
	c-2.54-1.82-5.17-3.5-7.78-5.19c-7.81-5.04-14.23-11.46-19.28-19.27c-1.69-2.62-3.37-5.25-5.19-7.78
	c-3.26-4.56-7.63-7.03-13.24-7.39c-2.84-0.18-5.67-0.23-8.51-0.24c-9.64-0.04-19.28,0.08-28.91-0.22
	c-4.24-0.13-8.47-0.37-12.64-1.22c-2.32-0.47-4.58-1.14-6.63-2.38c-4.02-2.44-5.11-6.36-2.9-10.52c1.43-2.69,3.62-4.65,6.16-6.26
	c3.35-2.13,7.05-3.39,10.9-4.25c5.1-1.13,10.28-1.51,15.48-1.7c6.68-0.25,13.36-0.2,20.03-0.25c2.44-0.02,4.88-0.09,7.31-0.27
	c5.42-0.4,9.68-2.8,12.82-7.22c1.25-1.76,2.52-3.52,3.63-5.36c5.9-9.78,13.72-17.62,23.51-23.51c2.29-1.38,4.51-2.89,6.58-4.6
	c3.3-2.72,5.25-6.17,5.82-10.42c0.42-3.1,0.43-6.22,0.45-9.34c0.06-10.44-0.11-20.88,0.28-31.31c0.14-3.72,0.41-7.43,1.15-11.09
	c0.5-2.44,1.19-4.82,2.55-6.94c2.36-3.69,6.04-4.74,9.99-2.84c2.14,1.03,3.83,2.59,5.28,4.44c2.21,2.8,3.65,6,4.7,9.39
	c1.28,4.15,1.89,8.42,2.24,12.74c0.59,7.26,0.54,14.54,0.59,21.82c0.02,3.48,0.06,6.96,0.17,10.44c0.22,6.36,2.96,11.22,8.23,14.77
	c3.84,2.59,7.82,4.99,11.52,7.79c6.1,4.62,11.03,10.29,15.17,16.69c1.82,2.82,3.57,5.69,5.69,8.31c2.85,3.55,6.51,5.59,11.03,6.11
	c2.51,0.29,5.02,0.36,7.54,0.38c10.44,0.08,20.88-0.09,31.31,0.23c4.24,0.13,8.47,0.38,12.64,1.24c2.28,0.47,4.5,1.13,6.51,2.35
	c4.02,2.44,5.11,6.36,2.9,10.52c-1.37,2.58-3.44,4.49-5.85,6.06c-3.57,2.33-7.54,3.66-11.67,4.54c-5.15,1.09-10.37,1.49-15.61,1.61
	c-6.28,0.14-12.56,0.16-18.83,0.23c-2.64,0.03-5.28,0.08-7.91,0.27c-5.42,0.4-9.65,2.83-12.84,7.21c-1.89,2.59-3.59,5.29-5.33,7.98
	c-5.03,7.77-11.42,14.16-19.19,19.2c-2.95,1.91-5.95,3.75-8.73,5.92c-3.8,2.98-5.92,6.84-6.4,11.64c-0.28,2.79-0.32,5.59-0.34,8.39
	c-0.05,10,0.08,20-0.22,29.99c-0.12,4.08-0.36,8.15-1.14,12.17c-0.51,2.64-1.23,5.22-2.75,7.5
	C253.58,371.6,251.62,372.96,248.96,372.97z M245.76,286.36c2.51,0.03,4.66-1.01,6.69-2.32c3.53-2.27,6.79-4.93,10.18-7.4
	c9.13-6.65,15.58-15.64,21.79-24.83c1.39-2.05,2.16-4.36,1.91-6.91c-0.21-2.17-1.14-4.06-2.3-5.85c-2.46-3.79-5.29-7.31-8-10.93
	c-6.61-8.84-15.45-15.09-24.45-21.15c-1.99-1.34-4.25-2.02-6.71-1.77c-2.17,0.22-4.06,1.15-5.84,2.32c-3.79,2.47-7.31,5.29-10.93,8
	c-8.84,6.61-15.09,15.46-21.14,24.46c-1.34,1.99-2.01,4.26-1.76,6.71c0.22,2.17,1.17,4.05,2.33,5.84c2.26,3.49,4.89,6.72,7.34,10.08
	c6.67,9.16,15.69,15.64,24.93,21.85C241.56,285.65,243.55,286.39,245.76,286.36z"/>
</svg>
