<?xml version="1.0" encoding="utf-8"?>
<!-- Generator: Adobe Illustrator 27.3.1, SVG Export Plug-In . SVG Version: 6.00 Build 0)  -->
<svg version="1.1" id="_x5F_0001_x5F_Stela_xA0_Image_00000039827383183603385090000005429132865638337418_"
	 xmlns="http://www.w3.org/2000/svg" xmlns:xlink="http://www.w3.org/1999/xlink" x="0px" y="0px" viewBox="0 0 491.52 491.52"
	 style="enable-background:new 0 0 491.52 491.52;" xml:space="preserve">
<path d="M142.82,192.8c6.65,0.11,12.95,1.92,19.14,4.14c10.81,3.88,21.31,8.52,31.94,12.82c2.26,0.91,4.55,1.76,6.84,2.59
	c5.17,1.87,10.22,1.52,15.11-0.94c3.39-1.71,6.74-3.49,10.15-5.17c4.79-2.35,9.9-3.85,15-5.34c6.44-1.88,11.06-5.74,13.66-11.96
	c0.49-1.18,1.06-2.33,1.55-3.51c5.56-13.15,10.81-26.43,16.57-39.49c2.18-4.94,4.45-9.84,7.76-14.17c1.07-1.4,2.28-2.68,3.74-3.69
	c3.63-2.53,7.49-2.05,10.4,1.29c1.92,2.21,2.93,4.84,3.5,7.66c0.85,4.22,0.59,8.44-0.18,12.64c-1.27,6.93-3.74,13.48-6.35,19.97
	c-3.58,8.9-7.27,17.76-10.89,26.65c-0.65,1.59-1.21,3.22-1.76,4.85c-1.64,4.81-1.39,9.53,0.83,14.11c1.2,2.48,2.46,4.94,3.77,7.37
	c3.14,5.81,5.17,12.04,6.98,18.34c1.89,6.55,5.85,11.17,12.16,13.77c0.78,0.32,1.53,0.7,2.3,1.03c12.5,5.23,25.02,10.44,37.51,15.7
	c4.68,1.97,9.31,4.07,13.67,6.7c2.13,1.28,4.16,2.7,5.87,4.52c4.48,4.76,3.74,10.07-1.91,13.37c-3.87,2.26-8.13,2.77-12.51,2.61
	c-5.45-0.21-10.67-1.57-15.8-3.31c-9.71-3.28-19.08-7.41-28.56-11.28c-3.89-1.58-7.76-3.2-11.69-4.68
	c-5.78-2.18-11.33-1.81-16.8,1.06c-3.82,2-7.59,4.12-11.57,5.81c-4.16,1.77-8.49,3.07-12.82,4.34c-6.44,1.88-11.03,5.78-13.63,12
	c-0.46,1.11-0.99,2.19-1.46,3.29c-5.59,13.22-10.87,26.57-16.67,39.71c-2.18,4.94-4.46,9.84-7.77,14.16
	c-1.05,1.37-2.24,2.61-3.66,3.61c-3.58,2.53-7.37,2.13-10.33-1.12c-1.65-1.82-2.64-3.99-3.27-6.34c-1.13-4.17-1.05-8.39-0.41-12.62
	c0.96-6.37,3.09-12.4,5.39-18.38c3.89-10.12,8.22-20.05,12.25-30.11c0.79-1.97,1.5-3.96,2.05-6.02c1.02-3.85,0.78-7.61-0.75-11.28
	c-0.51-1.22-1-2.45-1.65-3.59c-4.19-7.37-7.38-15.15-9.64-23.32c-0.23-0.85-0.57-1.66-0.87-2.49c-1.71-4.7-4.82-8.13-9.29-10.36
	c-5.48-2.74-11.22-4.88-16.85-7.26c-10.83-4.57-21.79-8.82-32.43-13.84c-3.4-1.61-6.72-3.38-9.7-5.7c-1.56-1.21-2.97-2.56-4.01-4.25
	c-2-3.24-1.61-6.6,1.06-9.31c1.82-1.85,4.08-2.92,6.53-3.64C137.79,193.03,140.29,192.79,142.82,192.8z"/>
</svg>
