<?xml version="1.0" encoding="utf-8"?>
<!-- Generator: Adobe Illustrator 27.3.1, SVG Export Plug-In . SVG Version: 6.00 Build 0)  -->
<svg version="1.1" id="_x5F_0005_x5F_Ter_xA0_Image_00000057844553432950634550000002424592526433854376_"
	 xmlns="http://www.w3.org/2000/svg" xmlns:xlink="http://www.w3.org/1999/xlink" x="0px" y="0px" viewBox="0 0 491.52 491.52"
	 style="enable-background:new 0 0 491.52 491.52;" xml:space="preserve">
<path d="M232.37,183.68c0.09-12.18-0.18-27.06,0.22-41.93c0.11-4.12,0.36-8.23,1.16-12.29c0.47-2.4,1.13-4.75,2.42-6.87
	c2.44-4.03,6.34-5.13,10.51-2.94c2.47,1.3,4.33,3.27,5.87,5.55c2.23,3.29,3.57,6.96,4.49,10.8c1.4,5.87,1.79,11.86,1.92,17.86
	c0.37,17.88,0.13,35.75,0.19,53.63c0.03,9.6,0.03,19.2-0.03,28.8c-0.01,1.28,0.35,1.96,1.49,2.61
	c24.84,14.31,49.67,28.66,74.48,43.03c5.54,3.21,11.05,6.46,16.08,10.46c1.91,1.52,3.7,3.18,5.14,5.18c0.78,1.08,1.43,2.22,1.8,3.51
	c0.78,2.7,0.19,5.07-1.77,7.07c-1.74,1.78-3.92,2.73-6.3,3.28c-3.86,0.9-7.71,0.64-11.54-0.18c-6.24-1.34-11.98-3.99-17.56-6.97
	c-13.44-7.18-26.5-15.04-39.72-22.62c-11.52-6.61-23.01-13.26-34.48-19.94c-0.87-0.5-1.43-0.27-2.16,0.15
	c-24.94,14.39-49.87,28.78-74.83,43.15c-4.89,2.81-9.81,5.56-14.99,7.82c-2.76,1.2-5.57,2.25-8.57,2.65
	c-7.13,0.97-11.16-3.22-9.92-10.32c0.62-3.55,2.27-6.64,4.41-9.48c3.82-5.06,8.76-8.85,13.98-12.3
	c8.98-5.93,18.41-11.12,27.72-16.52c16.26-9.42,32.55-18.81,48.84-28.18c0.87-0.5,1.2-1.04,1.19-2.06
	C232.36,219.89,232.37,203.13,232.37,183.68z"/>
</svg>
