<?xml version="1.0" encoding="utf-8"?>
<!-- Generator: Adobe Illustrator 27.3.1, SVG Export Plug-In . SVG Version: 6.00 Build 0)  -->
<svg version="1.1" id="_x5F_0004_x5F_Tera_xA0_Image_00000108991516026043579420000016635529376975053952_"
	 xmlns="http://www.w3.org/2000/svg" xmlns:xlink="http://www.w3.org/1999/xlink" x="0px" y="0px" viewBox="0 0 491.52 491.52"
	 style="enable-background:new 0 0 491.52 491.52;" xml:space="preserve">
<path d="M232.34,318.56c0-7.48-0.17-14.96,0.05-22.43c0.24-8.32-2.5-15.18-8.62-20.88c-4.8-4.46-8.85-9.56-11.43-15.69
	c-1.11-2.62-1.98-5.32-2.77-8.05c-0.24-0.85-0.52-1.68-0.72-2.54c-1.63-7.23-5.83-12.43-12.24-16.09
	c-12.53-7.16-24.99-14.46-37.47-21.72c-5.05-2.94-10.09-5.87-14.91-9.18c-2.48-1.7-4.87-3.51-6.97-5.66
	c-1.35-1.38-2.55-2.88-3.35-4.65c-1.61-3.55-0.75-6.92,2.37-9.26c1.97-1.48,4.23-2.22,6.64-2.6c3.82-0.59,7.58-0.17,11.3,0.74
	c5.12,1.26,9.91,3.37,14.58,5.78c11.13,5.75,21.82,12.26,32.7,18.45c3.27,1.86,6.56,3.68,9.83,5.53c5.53,3.14,11.33,3.86,17.49,2.21
	c3.7-0.99,7.42-1.95,11.23-2.5c6.04-0.88,11.96-0.21,17.83,1.27c2.44,0.62,4.89,1.21,7.36,1.72c4.29,0.88,8.43,0.36,12.42-1.45
	c3.18-1.44,6.18-3.19,9.2-4.92c12.97-7.44,25.93-14.91,38.92-22.33c3.82-2.18,7.72-4.23,11.78-5.94c1.92-0.81,3.87-1.51,5.9-1.99
	c1.49-0.35,2.99-0.56,4.52-0.5c4.48,0.17,7.29,2.92,7.52,7.41c0.15,2.83-0.62,5.46-1.84,7.98c-1.8,3.73-4.43,6.83-7.43,9.63
	c-3.49,3.26-7.38,6.01-11.4,8.56c-10.62,6.71-21.62,12.77-32.46,19.11c-2.97,1.74-5.91,3.52-8.86,5.28
	c-5.31,3.16-8.76,7.71-10.37,13.69c-0.76,2.82-1.62,5.61-2.53,8.38c-1.94,5.95-5.13,11.17-9.37,15.75
	c-2.17,2.35-4.39,4.65-6.54,7.02c-3.15,3.47-4.87,7.56-5.24,12.23c-0.24,3.03-0.26,6.07-0.27,9.11
	c-0.06,16.08,0.14,32.15-0.17,48.23c-0.09,4.44-0.31,8.87-1.1,13.26c-0.42,2.33-1.02,4.61-2.13,6.72
	c-2.57,4.91-7.08,6.11-11.77,3.14c-2.53-1.6-4.37-3.85-5.86-6.4c-2.01-3.42-3.19-7.14-3.98-11.01c-1.05-5.11-1.38-10.3-1.55-15.5
	C232.36,331.84,232.4,325.2,232.34,318.56z"/>
</svg>
