<?xml version="1.0" encoding="utf-8"?>
<!-- Generator: Adobe Illustrator 27.3.1, SVG Export Plug-In . SVG Version: 6.00 Build 0)  -->
<svg version="1.1" id="_x5F_0003_x5F_Teror_xA0_Image_00000013178704415622018370000011104427777123551144_"
	 xmlns="http://www.w3.org/2000/svg" xmlns:xlink="http://www.w3.org/1999/xlink" x="0px" y="0px" viewBox="0 0 491.52 491.52"
	 style="enable-background:new 0 0 491.52 491.52;" xml:space="preserve">
<path d="M184.59,136.04c2.65,0.07,5.52,1.11,8.23,2.67c3.94,2.26,7.15,5.37,10.03,8.83c4.01,4.81,7.31,10.11,10.49,15.48
	c4.09,6.92,8.11,13.88,12.19,20.81c0.87,1.48,1.83,2.91,2.77,4.35c3.04,4.67,7.34,7.38,12.84,8.17c4.15,0.6,8.34,1.04,12.47,1.77
	c12.96,2.28,23.29,8.92,31.34,19.24c2.21,2.84,4.28,5.79,6.63,8.51c3.23,3.73,7.27,5.79,12.17,6.2c2.39,0.2,4.79,0.27,7.19,0.28
	c12.92,0.08,25.84-0.13,38.75,0.23c4.28,0.12,8.55,0.37,12.76,1.24c2.28,0.47,4.5,1.13,6.51,2.35c4.02,2.44,5.1,6.36,2.89,10.53
	c-1.35,2.54-3.39,4.43-5.76,5.99c-3.6,2.37-7.6,3.72-11.77,4.61c-5.15,1.09-10.37,1.45-15.61,1.62c-8.76,0.29-17.52,0.18-26.27,0.22
	c-2.92,0.01-5.84,0.04-8.75,0.3c-4.86,0.43-8.87,2.46-12.08,6.15c-2.63,3.02-4.89,6.33-7.39,9.45
	c-8.83,10.99-20.27,17.23-34.23,18.96c-3.29,0.41-6.6,0.73-9.86,1.35c-4.8,0.91-8.57,3.35-11.4,7.34c-1.97,2.78-3.67,5.72-5.38,8.66
	c-5.88,10.09-11.59,20.28-17.68,30.25c-2.4,3.93-4.9,7.79-7.97,11.24c-1.55,1.74-3.24,3.32-5.32,4.44c-4.09,2.21-8,1.19-10.48-2.74
	c-1.72-2.73-2.29-5.77-2.36-8.94c-0.09-4.3,0.84-8.42,2.24-12.45c2.3-6.61,5.63-12.72,9.04-18.78c3.57-6.34,7.22-12.64,10.83-18.96
	c1.23-2.15,2.4-4.34,3.42-6.6c1.94-4.29,2.14-8.63,0.63-13.09c-1.08-3.19-2.49-6.24-3.79-9.33c-3.38-8.06-5.03-16.4-4.2-25.17
	c0.57-6.04,2.34-11.74,4.72-17.28c1.07-2.5,2.16-4.99,3.09-7.55c1.77-4.84,1.54-9.56-0.69-14.21c-2.67-5.56-5.94-10.79-8.99-16.14
	c-4.73-8.31-9.64-16.51-14.11-24.96c-1.68-3.18-3.26-6.42-4.45-9.83c-0.78-2.24-1.39-4.51-1.43-6.9
	C175.77,139.09,178.84,135.99,184.59,136.04z M236.01,216.55c-5.36,0-8.13,1.68-10.33,5.71c-1.44,2.64-2.38,5.48-3.38,8.3
	c-2.46,6.97-3.97,14.06-2.45,21.48c1.22,5.96,3.11,11.71,5.81,17.16c2.17,4.39,5.82,6.13,10.63,5.7c2.43-0.21,4.83-0.6,7.22-1.07
	c5.26-1.01,10.46-2.22,15.16-4.92c7.18-4.12,12.33-10.32,17.13-16.86c3.06-4.18,2.98-8.45-0.02-12.65
	c-3.52-4.93-7.46-9.49-12.12-13.39C255.37,219.1,245.21,217.79,236.01,216.55z"/>
</svg>
