<?xml version="1.0" encoding="utf-8"?>
<!-- Generator: Adobe Illustrator 27.3.1, SVG Export Plug-In . SVG Version: 6.00 Build 0)  -->
<svg version="1.1" id="Layer_1" xmlns="http://www.w3.org/2000/svg" xmlns:xlink="http://www.w3.org/1999/xlink" x="0px" y="0px"
	 viewBox="0 0 1920 1920" style="enable-background:new 0 0 1920 1920;" xml:space="preserve">
<path d="M685.02,1024.55c0.18-6.87,0.26-13.75,0.55-20.61c0.58-13.58,1.71-27.11,3.46-40.6c2.26-17.32,5.85-34.35,10.9-51.06
	c10.41-34.39,26.52-65.78,49.7-93.35c22.47-26.72,49.64-47.41,81.11-62.47c20.3-9.72,41.52-16.65,63.66-20.69
	c9.6-1.75,19.29-2.84,29.03-3.54c15.06-1.09,30.05-0.42,44.99,1.35c17.68,2.1,34.91,6.2,51.78,11.91
	c20.39,6.9,39.55,16.37,58.09,27.22c4.97,2.91,9.96,5.77,15.05,8.48c1.95,1.03,4.13,1.7,6.27,2.26c1.91,0.5,3.46-0.32,4.33-2.14
	c0.55-1.15,1-2.35,1.52-3.52c2.09-4.75,4.53-6.32,9.7-6.11c3.55,0.14,6.95,1.1,10.23,2.39c5.82,2.29,11.32,5.23,16.51,8.72
	c17.19,11.56,31.44,26.14,43.76,42.69c21.35,28.7,35.09,60.77,42.41,95.7c2.79,13.32,4.57,26.78,6.5,40.23
	c0.45,3.16,1.1,6.3,1.75,9.42c0.26,1.24,0.69,2.47,1.23,3.62c1.05,2.25,2.98,2.61,4.51,0.75c1.2-1.46,2.32-3.1,3.05-4.84
	c1.47-3.54,2.83-7.14,3.9-10.81c2.63-9.09,4.06-18.41,4.79-27.83c0.53-6.85,0.89-13.7,0.71-20.59c-0.37-14.59-1.91-29.02-4.85-43.31
	c-3.92-19.02-9.87-37.41-17.93-55.07c-9.94-21.77-22.34-42.05-37.27-60.8c-13.6-17.07-28.75-32.64-45.03-47.12
	c-17.34-15.41-34.99-30.46-53.13-44.93c-22.77-18.16-47.69-32.74-74.34-44.4c-18.34-8.03-37.15-14.7-56.6-19.51
	c-14.63-3.61-29.43-5.91-44.49-6.82c-22.85-1.38-45.36,0.9-67.66,5.59c-45.81,9.64-87.73,28.47-126.7,54.14
	c-22.23,14.65-42.99,31.18-62.22,49.57c-12.6,12.05-24.81,24.49-37.29,36.67c-3.65,3.57-7.57,6.87-11.43,10.23
	c-0.95,0.83-2.09,1.5-3.24,2.02c-2.7,1.23-4.48,0.15-4.55-2.73c-0.03-1.26,0.08-2.58,0.44-3.78c1.26-4.28,2.41-8.63,4.05-12.77
	c4.78-12.09,11.19-23.33,18.25-34.23c11.78-18.19,25.36-34.96,40.51-50.41c30.05-30.66,64.33-55.55,102.89-74.48
	c28.26-13.87,57.78-24.12,88.65-30.46c13.01-2.67,26.13-4.59,39.35-5.85c14.99-1.42,29.99-2.03,45.03-1.44
	c12.46,0.49,24.88,1.55,37.25,3.27c15.38,2.14,30.54,5.32,45.51,9.44c17.29,4.76,34.14,10.78,50.55,18
	c42.05,18.51,81.41,41.59,117.9,69.52c17.68,13.54,34.36,28.23,49.95,44.13c20.32,20.72,38.69,43.07,55.08,67.02
	c9.03,13.2,17.77,26.59,26.7,39.86c2.5,3.71,5.11,7.36,7.81,10.93c4.92,6.51,10.94,11.58,18.85,14.22
	c7.76,2.59,13.44,7.87,17.96,14.52c4.06,5.98,7.21,12.43,9.98,19.09c6.18,14.83,10.28,30.25,13.19,46
	c2.59,14.01,4.27,28.14,4.91,42.37c0.6,13.43,0.65,26.88-0.14,40.29c-0.84,14.37-2.5,28.67-4.95,42.86
	c-4.66,27.03-12.05,53.31-22.18,78.8c-9.47,23.84-21.14,46.58-35.06,68.14c-15.32,23.74-32.94,45.66-53.01,65.54
	c-39.77,39.39-85.86,69.03-138.27,88.73c-23.56,8.86-47.8,15.28-72.66,19.22c-15.96,2.53-32.01,4.27-48.2,4.43
	c-4.95,0.05-9.91,0.48-14.86,0.32c-14.86-0.49-29.68-1.26-44.46-3.24c-21.94-2.93-43.42-7.76-64.43-14.65
	c-41.17-13.5-78.61-33.87-112.13-61.35c-25.41-20.84-47.35-44.84-65.4-72.34c-12.69-19.34-23-39.88-30.31-61.85
	c-5.26-15.83-8.92-32.03-10.22-48.69c-0.52-6.69-0.91-13.4-1.09-20.11c-0.26-9.43-0.29-18.86-0.41-28.3c-0.01-0.96,0-1.92,0-2.88
	L685.02,1024.55z M1035.29,1130.08c3.36,0,6.72-0.09,10.07,0.02c3.67,0.12,7.33,0.39,11,0.66c0.94,0.07,1.91,0.28,2.8,0.61
	c2.23,0.84,2.82,2.63,1.53,4.56c-0.53,0.79-1.15,1.57-1.88,2.16c-2.61,2.09-5.15,4.35-7.99,6.07c-3.68,2.23-7.55,4.21-11.48,5.96
	c-23.65,10.49-48.41,14.96-74.25,13.77c-15.12-0.7-29.85-3.38-44.24-7.9c-28.18-8.86-52.73-23.61-72.75-45.5
	c-23.75-25.96-36.59-56.75-39.51-91.65c-1.24-14.84-0.84-29.72,1.64-44.48c2.21-13.14,5.61-25.92,11.03-38.13
	c7.06-15.91,17.31-29.02,32.63-37.86c14.27-8.23,28.6-16.35,43.58-23.23c10.94-5.03,22.24-8.97,34.22-10.67
	c3.81-0.54,7.65-0.92,11.46-0.13c3.24,0.68,4.21,1.97,4.36,5.29c0.02,0.48,0.03,0.96,0.01,1.44c-0.15,3.37,1.44,5.83,4.14,7.63
	c1.33,0.89,2.7,1.72,4.13,2.42c2.87,1.41,5.79,2.72,8.69,4.06c8.17,3.77,15.97,8.12,22.62,14.28c6.06,5.62,11,12.01,13.77,19.92
	c1.4,3.99,1.97,8.05,1.49,12.26c-0.94,8.25-5.64,13.33-13.8,14.95c-1.72,0.34-3.46,0.68-5.13,1.22c-3.74,1.21-6.36,3.69-7.47,7.5
	c-1.78,6.08-2.28,12.24-0.73,18.46c1.59,6.36,4.83,11.84,9.35,16.5c5.51,5.67,12.27,7.87,20.11,6.57
	c8.72-1.45,15.86-5.72,21.71-12.24c3.87-4.32,6.94-9.18,9.25-14.5c1.27-2.93,2.5-5.89,3.58-8.89c2.24-6.23,5.2-12.01,9.63-17
	c2.58-2.91,4.27-6.33,5.39-10.07c1.18-3.9,1.32-7.89,1.06-11.88c-0.56-8.77-3.44-16.86-7.57-24.55c-3.57-6.64-7.77-12.87-12.41-18.8
	c-3.78-4.83-6.78-10-8.3-16.05c-1.27-5.04-4.11-9.33-7.69-13.11c-4.76-5.04-10.2-9.2-16.11-12.78c-8.95-5.43-18.57-9.29-28.56-12.28
	c-13.57-4.05-27.55-5.51-41.58-6.73c-7.16-0.63-14.31-1.48-21.42-2.56c-8.59-1.31-17.17-1.86-25.81-0.86
	c-5.56,0.64-11.09,1.52-16.64,2.24c-6.37,0.82-12.71,1.17-19.03-0.57c-6.56-1.8-12.98-0.91-19.3,1.36
	c-10.36,3.71-19.56,9.45-28.13,16.23c-15.87,12.53-28.8,27.67-39.32,44.88c-19.1,31.24-28.65,65.4-30.57,101.8
	c-0.52,9.9-0.35,19.8,0.39,29.72c1.06,14.07,3.22,27.94,6.57,41.63c7.15,29.28,18.89,56.62,34.66,82.3
	c15.93,25.95,35.17,49.1,57.88,69.38c15.32,13.69,31.95,25.55,49.67,35.95c22.58,13.25,46.29,23.87,71.46,31.17
	c19.12,5.55,38.65,8.76,58.53,9.73c9.42,0.46,18.85,0.28,28.28-0.3c10.23-0.63,20.39-1.8,30.47-3.57
	c29.67-5.19,57.9-14.74,84.65-28.55c30.53-15.75,57.82-35.88,81.39-60.98c13.52-14.39,25.62-29.84,35.56-46.93
	c4.83-8.3,9.27-16.81,12.34-25.94c1.37-4.08,2.37-8.29,3.29-12.5c0.37-1.67,0.31-3.53,0.03-5.23c-0.4-2.48-2.12-3.57-4.53-3.02
	c-1.37,0.32-2.8,0.82-3.93,1.63c-3.12,2.22-6.31,4.42-9.09,7.03c-8.26,7.79-16.37,15.74-24.48,23.69
	c-14.18,13.89-28.9,27.16-44.71,39.19c-29.12,22.16-60.7,39.68-95.65,50.9c-19.41,6.23-39.25,10.34-59.59,11.83
	c-15.04,1.1-30.05,0.77-44.95-1.73c-5.68-0.95-11.29-2.25-16.64-4.46c-2.08-0.86-4.12-1.78-5.61-3.56
	c-0.88-1.06-0.82-2.57,0.23-3.44c0.73-0.6,1.55-1.17,2.43-1.5c2.23-0.86,4.47-1.77,6.79-2.32c8.56-2.01,17.14-3.91,25.72-5.8
	c27.47-6.03,53.81-15.13,78.54-28.7c19.62-10.77,37.55-23.75,53.11-39.9c7.79-8.09,14.91-16.71,20.49-26.51
	c2.86-5.02,5.42-10.16,6.57-15.88c0.84-4.2,0.57-8.27-1.61-12.08c-0.72-1.25-1.34-2.55-2.09-3.78c-1.97-3.23-2.77-6.75-2.85-10.51
	c-0.12-5.32,0.7-10.53,1.74-15.71c2.2-10.97,4.57-21.9,6.79-32.87c2.26-11.14,3.62-22.43,4.22-33.76c0.77-14.71,0.41-29.4-1.9-44.01
	c-2.19-13.81-5.75-27.2-11.51-39.96c-1.12-2.47-2.43-4.86-3.84-7.18c-0.82-1.35-1.93-2.54-3.05-3.67c-0.85-0.86-2.36-0.62-2.87,0.47
	c-0.66,1.43-1.23,2.95-1.59,4.48c-0.51,2.17-0.7,4.43-1.21,6.6c-0.99,4.19-1.88,8.43-3.24,12.51c-1.83,5.5-5.3,9.45-11.47,10.25
	c-0.47,0.06-0.92,0.26-1.38,0.4c-2.46,0.72-4.2,2.31-5.22,4.61c-0.64,1.45-1.22,2.97-1.58,4.51c-0.76,3.27-1.44,6.56-2.02,9.86
	c-1.84,10.4-4.03,20.71-7.52,30.7c-5.74,16.42-14.44,31-27.04,43.07c-13.45,12.87-28.96,22.62-46.28,29.39
	c-16.85,6.58-34.27,9.06-52.24,5.98c-17.9-3.07-33.41-10.82-45.54-24.54c-10.22-11.56-15.81-25.01-15.59-40.68
	c0.08-5.63,0.82-11.15,1.75-16.67c0.42-2.52,0.85-5.05,1.1-7.59c1.08-10.9-9.51-17.68-18.38-13.65c-2.46,1.12-4.84,2.49-7.03,4.06
	c-7.53,5.4-13.38,12.36-17.94,20.37c-6.87,12.06-10.13,25.06-10.39,38.96c-0.33,17.09,3.92,32.91,12.26,47.71
	c6.19,10.98,14.25,20.44,23.66,28.77c22.5,19.93,48.88,31.74,78.28,37.15C1009.73,1129.37,1022.48,1130.13,1035.29,1130.08z
	 M821.47,375.4c-3.18-0.27-6.39-0.7-9.56-0.53c-8.14,0.42-16.3,0.87-24.39,1.79c-19.23,2.19-38.26,5.6-57.14,9.83
	c-29.35,6.58-58.17,14.99-86.45,25.26c-34.79,12.63-68.32,27.94-100.32,46.6c-33.03,19.26-63.47,41.93-91.16,68.32
	c-18.79,17.91-36.13,37.12-52.03,57.64c-21.41,27.65-39.93,57.13-55.7,88.32c-10.61,20.99-19.84,42.59-27.53,64.83
	c-12.05,34.88-20.98,70.45-23.85,107.36c-0.52,6.71-0.69,13.42,0.29,20.1c0.25,1.73,0.59,3.49,1.19,5.12
	c1.07,2.91,2.94,3.37,5.03,1.2c1.32-1.37,2.54-2.91,3.43-4.58c2.41-4.51,4.83-9.03,6.86-13.71c6.74-15.54,13.31-31.16,19.94-46.75
	c10.58-24.87,22.11-49.31,34.85-73.15c14.87-27.8,31.29-54.66,49.43-80.47c29.37-41.78,62.82-79.92,100.74-114.15
	c28.81-26.01,59.7-49.23,92.75-69.59c19.07-11.75,38.71-22.44,58.87-32.22c20.3-9.85,41.04-18.64,62.14-26.55
	c24.4-9.14,49.27-16.9,74.21-24.42c5.35-1.61,10.61-3.56,15.87-5.43c1.93-0.69,3.91-1.4,5.61-3.79
	C823.2,375.97,822.35,375.48,821.47,375.4z M1030.7,1457.49c18.89-2.55,37.49-6.43,55.76-11.82c25.24-7.44,49.53-17.16,72.12-30.8
	c6.72-4.05,13.28-8.35,19-13.77c1.72-1.63,3.32-3.49,4.57-5.5c1.56-2.52,0.41-4.84-2.52-5.32c-2.19-0.35-4.46-0.41-6.69-0.37
	c-7.54,0.11-14.96,1.42-22.38,2.56c-17.22,2.64-34.4,5.5-51.72,7.55c-16.84,1.99-33.72,3.49-50.65,4.17
	c-22.54,0.9-45.09,0.71-67.57-1.49c-11.93-1.17-23.86-2.47-35.71-4.21c-16.14-2.37-32.07-5.84-47.86-9.95
	c-26.98-7.03-53.11-16.41-78.51-27.9c-24.25-10.97-47.28-24.1-69.49-38.7c-17.79-11.69-34.71-24.59-51.34-37.86
	c-7.38-5.88-14.89-11.6-22.39-17.32c-1.64-1.26-3.45-2.31-5.27-3.32c-1.25-0.69-2.6-1.25-3.97-1.66c-3.28-0.98-4.83,0.33-4.66,3.85
	c0.04,0.95,0.17,1.92,0.42,2.84c0.51,1.85,1.06,3.69,1.72,5.48c3.94,10.72,9.66,20.54,15.81,30.09c16.4,25.5,35.28,49.06,55.9,71.25
	c13.37,14.39,28.52,26.57,45.26,36.84c21.39,13.12,44.29,22.86,68.09,30.54c16.44,5.31,33.22,9.33,50.24,12.33
	c12.76,2.25,25.6,3.95,38.51,5c11.8,0.97,23.62,1.55,34.79,1.2C992.23,1461.61,1011.49,1460.08,1030.7,1457.49z M825.2,694.96
	c2.84-0.37,5.71-0.72,8.49-1.4c13.8-3.4,27.58-6.88,41.35-10.37c32.94-8.34,66.45-12.92,100.32-15.07
	c4.62-0.29,9.25-0.66,13.85-1.18c3.01-0.34,5.99-0.97,8.97-1.55c0.92-0.18,1.81-0.58,2.66-1c0.93-0.46,1.06-1.86,0.18-2.38
	c-1.5-0.88-3.03-1.86-4.68-2.33c-3.98-1.15-8-2.26-12.07-3c-10.56-1.91-21.24-2.61-31.96-2.58c-4.31,0.01-8.62,0.24-12.93,0.38
	c-8.48,0.27-16.9,1.25-25.27,2.52c-15.51,2.35-30.7,6.06-45.54,11.18c-12.87,4.44-25.37,9.71-36.95,16.93
	c-2.57,1.6-4.97,3.48-7.35,5.35c-1.09,0.86-2.2,1.88-2.04,4.11C823.36,694.74,824.31,695.07,825.2,694.96z"/>
</svg>
