<?xml version="1.0" encoding="utf-8"?>
<!-- Generator: Adobe Illustrator 27.3.1, SVG Export Plug-In . SVG Version: 6.00 Build 0)  -->
<svg version="1.1" id="_x5F_0011_x5F_Zil_xA0_Image_00000138554353679752680840000014884621942402190242_"
	 xmlns="http://www.w3.org/2000/svg" xmlns:xlink="http://www.w3.org/1999/xlink" x="0px" y="0px" viewBox="0 0 491.52 491.52"
	 style="enable-background:new 0 0 491.52 491.52;" xml:space="preserve">
<path d="M240.47,259.07c-31.03,0-62.07,0.01-93.1-0.01c-4.24,0-8.48-0.15-12.7-0.55c-2.51-0.24-5-0.59-7.44-1.26
	c-1.51-0.41-2.97-0.94-4.34-1.72c-4.42-2.52-5.56-6.71-3-11.12c1.46-2.52,3.59-4.38,6.02-5.91c3.36-2.11,7.06-3.37,10.91-4.21
	c5.57-1.22,11.24-1.59,16.92-1.72c14.88-0.35,29.75-0.18,44.63-0.18c47.71-0.01,95.42,0.02,143.13,0.05c5.16,0,10.32,0.1,15.46,0.6
	c2.87,0.28,5.72,0.7,8.47,1.59c1.76,0.57,3.44,1.32,4.87,2.53c2.41,2.05,3.2,4.62,2.32,7.66c-0.72,2.51-2.3,4.46-4.22,6.15
	c-2.69,2.36-5.84,3.91-9.2,5.04c-4.2,1.42-8.54,2.09-12.93,2.49c-5.86,0.53-11.74,0.62-17.62,0.62
	c-29.39,0.02-58.79,0.01-88.18,0.01V259.07z"/>
</svg>
