<?xml version="1.0" encoding="utf-8"?>
<!-- Generator: Adobe Illustrator 27.3.1, SVG Export Plug-In . SVG Version: 6.00 Build 0)  -->
<svg version="1.1" id="_x5F_0010_x5F_Zila_xA0_Image_00000080889947242773855630000001188813073085476799_"
	 xmlns="http://www.w3.org/2000/svg" xmlns:xlink="http://www.w3.org/1999/xlink" x="0px" y="0px" viewBox="0 0 491.52 491.52"
	 style="enable-background:new 0 0 491.52 491.52;" xml:space="preserve">
<path d="M179.55,344.04c0.11-5.51,2.06-11.24,4.6-16.81c3.84-8.42,8.63-16.33,13.2-24.36c2.65-4.66,5.22-9.36,7.96-13.97
	c4.9-8.23,6.37-17.02,4.85-26.44c-0.8-4.97-1.36-9.99-1.21-15.05c0.48-16.15,8.02-27.93,22.07-35.68c3.96-2.19,8.13-3.94,12.34-5.59
	c8.32-3.27,14.75-8.67,19.19-16.44c1.66-2.92,3.43-5.77,5.13-8.67c6.72-11.45,13.1-23.1,20.21-34.32c1.97-3.11,4.1-6.11,6.64-8.79
	c1.36-1.43,2.83-2.72,4.57-3.67c4.12-2.25,8.07-1.22,10.56,2.78c1.59,2.55,2.2,5.39,2.32,8.35c0.23,5.47-1.19,10.62-3.19,15.64
	c-2.97,7.46-7.03,14.36-10.97,21.32c-3.86,6.82-7.69,13.66-11.66,20.42c-4.76,8.1-6.25,16.73-4.8,25.99
	c0.87,5.57,1.53,11.17,1.2,16.84c-0.88,14.77-7.84,25.8-20.51,33.32c-4.42,2.62-9.15,4.59-13.9,6.47
	c-8.28,3.27-14.58,8.69-19.12,16.36c-6.26,10.56-12.28,21.26-18.53,31.83c-3.56,6.02-7.01,12.12-11.38,17.62
	c-1.52,1.91-3.19,3.7-5.18,5.13c-1.01,0.73-2.08,1.34-3.28,1.71c-2.88,0.89-5.37,0.25-7.46-1.91c-1.28-1.32-2.1-2.91-2.67-4.64
	C179.79,349.3,179.53,347.04,179.55,344.04z"/>
</svg>
