<?xml version="1.0" encoding="utf-8"?>
<!-- Generator: Adobe Illustrator 27.3.1, SVG Export Plug-In . SVG Version: 6.00 Build 0)  -->
<svg version="1.1" id="_x5F_0009_x5F_Zilor_xA0_Image_00000023997410836510384140000015174879947244461231_"
	 xmlns="http://www.w3.org/2000/svg" xmlns:xlink="http://www.w3.org/1999/xlink" x="0px" y="0px" viewBox="0 0 491.52 491.52"
	 style="enable-background:new 0 0 491.52 491.52;" xml:space="preserve">
<path d="M290.12,246.79c-0.04,6.23-1.27,12.26-2.7,18.26c-0.75,3.11-1.48,6.22-1.94,9.39c-0.8,5.48-0.14,10.76,2.09,15.84
	c2.37,5.4,5.45,10.41,8.35,15.52c5.27,9.28,10.84,18.4,15.6,27.97c1.39,2.8,2.61,5.67,3.43,8.69c0.51,1.86,0.83,3.75,0.7,5.69
	c-0.27,4.16-2.79,6.81-6.95,7.21c-3.53,0.34-6.72-0.77-9.73-2.45c-4.81-2.69-8.52-6.59-11.83-10.9
	c-5.03-6.55-9.07-13.74-13.24-20.84c-2.78-4.72-5.5-9.47-8.4-14.12c-4.29-6.9-10.31-11.43-18.05-13.83
	c-5.42-1.68-10.92-3.12-16.17-5.31c-14.78-6.18-24.66-16.7-28.55-32.43c-2.04-8.26-1.38-16.51,0.44-24.72
	c0.86-3.86,1.75-7.72,2.57-11.59c1.51-7.17,0.47-13.98-2.88-20.48c-3.68-7.15-7.86-14.02-11.83-21.01
	c-3.85-6.78-7.85-13.48-11.24-20.51c-1.49-3.1-2.83-6.27-3.53-9.67c-0.37-1.77-0.54-3.56-0.2-5.36c0.6-3.16,2.49-5.11,5.62-5.83
	c2.5-0.57,4.93-0.18,7.31,0.64c3.78,1.3,6.96,3.56,9.84,6.27c4.73,4.46,8.4,9.75,11.74,15.26c5.02,8.27,9.88,16.64,14.86,24.93
	c3.56,5.93,8.18,10.72,14.75,13.37c2.56,1.03,5.17,1.91,7.82,2.69c6.33,1.87,12.67,3.74,18.42,7.08
	C281.89,215.51,289.57,229.07,290.12,246.79z M270.74,248.8c0.13-2.57-0.2-5.09-0.76-7.57c-1.43-6.28-4.7-11.42-9.71-15.47
	c-4.63-3.74-9.96-6.05-15.6-7.73c-3.6-1.07-7.28-1.59-11.01-0.71c-5.05,1.19-8.16,4.62-9.9,9.27c-2.65,7.07-3.66,14.38-2.49,21.92
	c0.83,5.34,2.95,10.11,6.64,14.03c6.6,7.01,15.01,10.66,24.37,11.92c6.56,0.88,11.81-1.82,14.85-8.15
	C269.79,260.78,270.51,254.83,270.74,248.8z"/>
</svg>
